<?xml version="1.0" encoding="UTF-8"?>
<!DOCTYPE svg PUBLIC "-//W3C//DTD SVG 1.1//EN" "http://www.w3.org/Graphics/SVG/1.1/DTD/svg11.dtd">
<!-- Creator: CorelDRAW X7 -->
<svg xmlns="http://www.w3.org/2000/svg" xml:space="preserve" width="0.39688cm" height="0.39688cm" version="1.1" style="shape-rendering:geometricPrecision; text-rendering:geometricPrecision; image-rendering:optimizeQuality; fill-rule:evenodd; clip-rule:evenodd"
viewBox="0 0 397 397"
 xmlns:xlink="http://www.w3.org/1999/xlink">
 <defs>
  <style type="text/css">
   <![CDATA[
    .fil0 {fill:white}
   ]]>
  </style>
 </defs>
 <g id="Layer_x0020_1">
  <metadata id="CorelCorpID_0Corel-Layer"/>
  <polygon class="fil0" points="109,90 174,220 104,244 69,103 "/>
  <polygon class="fil0" points="245,304 211,236 295,208 326,256 "/>
  <polygon class="fil0" points="322,171 306,176 292,155 307,151 "/>
  <path class="fil0" d="M0 66c0,-36 30,-66 66,-66l265 0c36,0 66,30 66,66l0 265c0,36 -30,66 -66,66l-265 0c-36,0 -66,-30 -66,-66l0 -265zm127 2c-3,-6 -10,-9 -16,-7l-62 21c-7,2 -11,9 -9,16l42 166c1,4 3,7 6,8 3,2 7,3 11,1l87 -29 42 85c2,3 5,6 8,7 4,1 8,0 11,-1l104 -63c3,-2 5,-5 6,-8 1,-4 0,-7 -2,-10l-34 -55 27 -9c4,-1 7,-4 9,-8 1,-4 0,-9 -2,-12l-32 -42c-3,-4 -8,-6 -13,-5l-42 11c-4,1 -8,4 -9,8 -2,4 -1,8 1,12l20 31 -81 27 -72 -144z"/>
 </g>
</svg>
